<?xml version="1.0" standalone="no"?>
<!DOCTYPE svg PUBLIC "-//W3C//DTD SVG 20010904//EN"
 "http://www.w3.org/TR/2001/REC-SVG-20010904/DTD/svg10.dtd">
<svg version="1.0" xmlns="http://www.w3.org/2000/svg"
 width="1087.000000pt" height="1087.000000pt" viewBox="0 0 1087.000000 1087.000000"
 preserveAspectRatio="xMidYMid meet">
<metadata>
Created by potrace 1.14, written by Peter Selinger 2001-2017
</metadata>
<g transform="translate(0.000000,1087.000000) scale(0.100000,-0.100000)"
fill="#000000" stroke="none">
<path d="M0 6375 c0 -2472 4 -4495 8 -4495 5 0 17 7 28 15 12 9 43 14 87 15
55 0 74 4 95 21 25 20 25 21 5 16 -26 -6 -43 11 -46 45 0 13 -5 26 -10 29 -18
13 3 26 50 32 26 4 58 9 70 13 22 6 44 -10 74 -55 14 -23 16 -23 40 -8 13 8
56 28 94 43 39 15 71 31 73 36 2 4 39 8 82 8 43 0 82 5 85 10 4 6 28 21 55 35
l49 25 30 -26 c17 -14 32 -23 32 -20 1 3 2 10 3 16 2 15 44 41 50 31 7 -11
-18 -33 -27 -24 -4 3 -7 1 -7 -6 0 -15 37 -5 58 15 11 12 11 14 -2 14 -23 0
-19 17 5 23 26 7 46 0 53 -19 4 -9 -2 -14 -17 -15 -17 -1 -15 -3 8 -8 l30 -7
-32 -17 c-18 -10 -33 -19 -33 -21 0 -7 40 6 46 15 2 5 17 6 33 3 19 -4 45 3
81 21 30 15 95 36 145 46 96 19 225 66 225 82 0 5 -9 11 -20 14 -21 5 -26 28
-12 51 16 24 119 52 191 52 38 0 72 -4 75 -9 6 -10 92 7 164 33 25 9 61 13 87
11 28 -3 49 0 57 8 7 8 19 12 27 9 8 -3 11 0 8 5 -4 6 7 13 24 17 24 4 29 10
25 24 -14 41 136 112 354 167 52 14 100 31 106 39 10 15 254 120 374 161 36
13 83 30 105 39 22 8 55 15 73 16 18 0 44 8 58 17 22 14 29 14 46 4 16 -10 18
-10 12 0 -5 9 -2 10 10 6 10 -4 26 -1 37 7 17 12 18 14 4 20 -11 4 -14 2 -9
-6 5 -8 2 -9 -11 -5 -9 4 -25 2 -33 -5 -13 -11 -14 -11 -8 0 14 23 68 41 88
31 11 -6 18 -6 18 0 0 5 15 19 34 30 26 17 60 23 157 30 118 8 128 10 197 47
57 31 74 46 83 72 9 26 16 32 39 32 48 0 139 45 150 74 7 19 17 26 37 26 39 0
54 12 51 41 -3 20 2 25 25 27 18 2 32 13 42 33 19 36 69 69 159 105 66 26 71
27 97 11 30 -17 43 -10 33 17 -4 11 8 24 42 46 52 33 84 39 84 15 0 -17 49
-40 61 -28 4 4 9 17 11 28 2 10 13 22 26 25 13 3 67 36 120 73 53 37 169 115
257 172 88 57 183 124 212 150 49 45 54 47 84 36 42 -15 73 3 102 58 21 38 31
45 93 67 38 14 89 33 113 41 25 9 62 34 83 55 30 30 52 42 94 51 30 6 54 16
54 22 0 6 16 26 35 45 19 18 32 37 29 42 -6 10 35 47 53 48 6 0 22 14 36 31
18 23 34 32 68 36 35 4 54 15 92 51 26 26 47 55 47 67 0 28 37 61 225 201 179
133 292 238 530 494 203 218 309 342 383 446 44 64 64 83 87 88 17 3 36 15 42
26 11 16 9 25 -10 54 -35 56 -76 47 -112 -24 -13 -26 -34 -54 -47 -63 -42 -29
-125 -112 -141 -142 -9 -16 -32 -41 -51 -55 -19 -14 -44 -40 -56 -57 -13 -18
-26 -33 -31 -33 -5 0 -56 -45 -114 -100 -97 -92 -125 -113 -125 -92 0 4 45 52
101 107 92 91 296 306 394 415 212 236 190 217 250 225 58 7 72 25 35 45 -28
15 -26 25 21 97 40 61 59 77 59 51 0 -7 7 -4 16 7 8 11 33 39 55 62 22 23 38
47 34 52 -6 11 10 47 32 69 7 7 13 20 13 28 0 9 7 22 15 30 10 10 13 27 10 51
-4 30 2 45 31 84 19 26 45 78 58 116 13 37 40 101 60 141 20 40 41 92 45 115
5 23 16 69 25 102 21 77 20 122 -3 220 -49 202 -106 310 -226 428 -56 55 -69
62 -185 103 -167 59 -335 92 -486 96 -65 2 -256 -3 -424 -10 l-305 -14 -199
-49 c-110 -28 -227 -63 -260 -79 -68 -34 -91 -37 -100 -15 -3 8 -17 15 -30 15
-22 0 -25 -5 -28 -41 l-3 -41 -95 -35 c-82 -30 -168 -63 -206 -79 -6 -3 -18 2
-27 10 -9 9 -22 16 -30 16 -19 0 -67 -45 -67 -63 0 -16 -62 -37 -109 -37 -26
0 -36 -8 -68 -56 -32 -49 -48 -61 -123 -98 -47 -24 -107 -51 -135 -61 -27 -10
-59 -26 -70 -36 -49 -43 -904 -481 -987 -505 -26 -8 -50 -19 -53 -24 -12 -19
-70 -44 -120 -51 -27 -4 -84 -19 -125 -34 -51 -18 -86 -25 -110 -21 -28 4 -40
1 -53 -14 -12 -14 -29 -20 -57 -20 -35 0 -40 3 -40 22 0 22 -1 22 -25 -5 -32
-34 -58 -34 -74 -1 l-12 27 -127 -7 c-70 -3 -179 -9 -243 -12 -127 -7 -169 -2
-169 22 0 13 -11 15 -72 11 -40 -3 -96 -11 -124 -18 -47 -11 -58 -10 -118 9
-37 12 -80 22 -97 22 -27 0 -31 3 -26 21 3 12 -1 32 -9 44 -13 20 -13 24 1 35
13 11 26 10 73 -4 31 -10 90 -22 131 -27 41 -5 77 -11 79 -14 3 -3 11 0 18 6
9 7 19 7 33 0 11 -6 42 -11 70 -11 47 0 51 2 51 24 0 22 -7 24 -102 41 -57 10
-137 19 -178 20 -60 2 -93 9 -164 39 -50 20 -101 36 -115 36 -42 0 -186 55
-259 98 -95 56 -152 60 -177 12 -15 -28 -14 -31 2 -37 39 -14 44 -58 12 -109
-19 -31 -23 -33 -62 -28 -23 2 -53 12 -67 21 -85 55 -235 200 -344 333 -81 98
-172 260 -162 287 4 8 -1 35 -9 59 -8 25 -16 68 -16 97 -1 29 -6 66 -12 83
-13 40 0 144 18 144 7 0 15 3 18 8 2 4 2 1 0 -7 -2 -8 2 -11 11 -8 8 3 17 1
19 -6 9 -26 20 5 21 62 0 32 4 57 9 54 4 -2 7 3 7 12 0 11 -5 15 -16 11 -9 -3
-12 -2 -9 5 4 6 13 8 20 5 7 -2 22 6 34 18 17 18 21 35 22 87 0 35 8 84 17
109 16 40 22 45 57 52 22 4 55 2 73 -4 45 -14 60 1 37 36 -14 20 -15 32 -7 56
13 35 3 44 -33 30 -40 -15 -122 -13 -128 4 -8 21 2 26 54 26 47 0 47 0 61 43
13 38 18 42 51 45 20 2 37 5 37 8 0 3 -14 25 -31 50 -16 24 -27 49 -23 55 3 6
1 21 -6 34 -10 19 -9 29 13 66 14 24 38 79 53 122 24 70 31 80 65 98 43 22 43
22 28 51 -19 35 6 102 47 124 26 14 36 16 46 6 13 -13 48 -16 48 -4 0 4 -4 12
-9 18 -5 5 -13 26 -16 47 -7 37 -7 37 25 37 39 0 63 26 49 52 -7 12 -3 24 15
44 21 25 29 28 78 25 52 -2 56 -1 62 23 5 19 13 26 30 26 19 0 26 7 31 30 6
28 9 30 56 30 38 0 51 4 56 18 3 9 17 32 31 50 l24 34 -33 28 -34 29 22 22
c13 13 33 24 45 25 44 2 64 14 81 48 9 19 32 47 52 63 21 15 74 58 119 95 44
37 97 73 116 79 19 7 64 28 98 47 58 32 67 34 99 24 33 -10 43 -7 124 34 49
24 91 44 93 44 2 0 7 -22 11 -50 4 -27 12 -50 18 -50 21 0 97 51 97 66 0 8
-11 32 -25 52 -14 20 -25 40 -25 43 0 4 14 12 30 18 27 9 34 7 65 -20 40 -35
58 -33 100 11 l29 30 -47 0 c-49 0 -58 9 -32 30 9 8 29 10 51 7 34 -6 35 -5
32 21 -3 23 0 27 21 24 13 -2 34 -1 47 2 21 6 24 12 24 52 l0 45 45 -6 c42 -7
45 -5 54 18 13 33 46 67 67 67 13 0 15 -10 12 -57 l-3 -58 30 2 c32 3 97 10
104 12 2 1 -4 10 -13 20 -13 15 -14 20 -4 24 7 3 -1 3 -18 0 -36 -6 -59 15
-26 24 12 3 22 14 24 25 2 17 20 26 83 44 94 28 115 29 115 9 0 -20 20 -19 49
4 20 15 21 19 7 24 -9 4 -16 15 -16 26 0 17 16 25 88 47 48 15 103 39 122 54
73 58 300 134 300 101 0 -13 -43 -46 -80 -61 -18 -8 -30 -20 -30 -31 0 -17 8
-19 60 -19 57 0 60 -1 50 -19 -15 -30 -14 -30 48 -24 48 5 61 11 83 37 23 26
25 34 16 56 -18 41 -36 58 -72 64 -42 8 -50 19 -29 40 14 15 -179 16 -2180 16
l-2196 0 0 -4495z m2789 304 c10 15 71 -6 71 -24 0 -11 -10 -11 -55 0 -30 7
-56 12 -57 11 -2 0 4 5 12 12 11 9 16 10 19 1 2 -8 5 -8 10 0z m5052 -152
c-10 -9 -11 -8 -5 6 3 10 9 15 12 12 3 -3 0 -11 -7 -18z m-1178 -1324 c-43
-52 -127 -117 -142 -111 -6 1 31 40 82 85 51 45 94 80 96 77 2 -2 -14 -25 -36
-51z m-393 -342 c0 -21 -13 -41 -26 -41 -22 0 -87 -35 -108 -59 -22 -24 -36
-27 -36 -8 0 24 92 99 135 110 32 8 35 8 35 -2z m-562 -432 c10 -14 4 -21 -43
-53 -53 -35 -55 -35 -55 -14 0 13 4 28 8 33 7 10 76 56 77 52 0 -1 6 -9 13
-18z m-228 -169 c0 -15 -31 -48 -87 -91 l-52 -41 -36 18 -37 17 28 15 c16 8
40 23 53 33 13 11 33 19 45 19 11 0 32 9 46 20 28 22 40 25 40 10z m-591 -387
c-33 -44 -66 -76 -88 -84 -49 -19 -82 17 -43 48 28 23 95 53 121 53 21 0 22
-2 10 -17z m-519 -308 c0 -8 -79 -45 -97 -45 -15 0 -15 2 -3 9 8 6 18 7 22 5
5 -3 11 2 14 11 4 9 12 14 19 11 6 -2 18 0 26 5 16 10 19 11 19 4z m-1235
-605 c-23 -26 -131 -77 -190 -90 -25 -6 -68 -22 -96 -36 -27 -15 -71 -29 -97
-31 l-47 -5 26 26 c17 18 46 32 90 42 55 12 149 45 289 99 46 18 46 18 25 -5z
m-554 -221 c-33 -27 -130 -60 -165 -57 -27 3 -22 7 54 44 54 26 92 39 108 36
l25 -5 -22 -18z m-238 -86 c10 -9 -123 -82 -150 -83 -35 0 -36 17 -2 41 53 37
135 60 152 42z m-258 -193 c-3 -5 -12 -10 -18 -10 -7 0 -6 4 3 10 19 12 23 12
15 0z m-35 -20 c0 -5 -5 -10 -11 -10 -5 0 -7 5 -4 10 3 6 8 10 11 10 2 0 4 -4
4 -10z"/>
<path d="M4875 10860 c8 -13 35 -13 55 0 11 7 5 10 -23 10 -23 0 -36 -4 -32
-10z"/>
<path d="M5073 10857 c-11 -19 -38 -28 -112 -37 -47 -6 -70 -15 -90 -34 -20
-19 -38 -26 -67 -26 -60 0 -110 -18 -128 -45 -9 -14 -26 -25 -37 -25 -11 0
-37 -9 -59 -20 -22 -11 -44 -20 -51 -20 -6 0 -27 -13 -46 -30 -30 -27 -51 -35
-77 -31 -5 1 -21 -9 -35 -22 -54 -50 -89 -67 -133 -67 -23 0 -75 -10 -115 -21
-58 -18 -73 -26 -77 -45 -5 -19 -13 -24 -36 -24 -41 0 -39 -22 5 -56 19 -14
35 -30 35 -34 0 -4 -32 -28 -72 -53 -69 -44 -72 -45 -85 -27 -12 18 -16 18
-54 4 -23 -7 -50 -14 -60 -14 -16 0 -19 -8 -19 -51 0 -62 -24 -101 -83 -131
-23 -11 -53 -29 -67 -40 -15 -12 -33 -17 -47 -13 -15 3 -42 -5 -78 -24 -31
-17 -62 -28 -70 -24 -12 4 -14 -1 -9 -23 3 -17 0 -37 -8 -47 -13 -17 -15 -17
-37 2 -18 16 -38 21 -79 21 -37 0 -58 5 -66 15 -9 13 -17 11 -53 -13 -55 -35
-64 -54 -20 -41 46 13 47 12 36 -23 -12 -45 -12 -48 11 -48 38 0 20 -41 -32
-73 -35 -22 -38 -21 -38 2 0 27 -14 33 -44 20 -25 -12 -25 -12 -9 -40 l17 -29
-49 -51 c-28 -27 -75 -64 -105 -82 -30 -17 -63 -41 -72 -52 -9 -12 -34 -29
-56 -39 -21 -10 -47 -32 -57 -49 -10 -18 -27 -38 -37 -45 -27 -20 -58 -86 -58
-126 0 -28 -8 -41 -44 -73 -29 -26 -48 -52 -55 -78 -6 -22 -31 -74 -55 -115
-52 -86 -65 -134 -101 -380 -14 -96 -31 -191 -39 -211 -12 -32 -11 -54 5 -170
15 -104 17 -140 8 -162 -15 -36 -10 -41 112 -124 55 -37 99 -71 99 -76 0 -5
15 -7 33 -4 74 13 181 16 193 6 8 -6 29 -8 52 -4 21 3 66 2 99 -4 44 -7 71 -6
92 2 21 7 36 8 53 0 18 -8 46 -4 128 18 58 15 150 32 206 38 74 8 141 24 252
61 83 28 186 55 229 60 53 7 88 17 112 34 20 14 108 50 195 81 88 31 178 68
200 83 23 14 117 66 210 114 166 88 226 125 399 250 91 66 176 98 260 98 33 0
37 3 37 25 0 20 7 26 43 35 23 6 58 20 77 31 87 50 148 73 215 80 66 6 146 34
250 86 22 11 65 23 95 27 72 9 156 64 103 67 -10 0 -4 5 12 10 17 5 52 17 78
26 29 9 63 13 85 9 31 -5 40 -2 57 20 18 22 32 27 100 34 150 16 280 43 369
77 49 19 119 38 155 43 36 5 112 16 169 24 106 17 267 15 298 -2 10 -5 72 -7
145 -4 104 4 133 2 151 -10 13 -9 57 -19 98 -23 41 -4 122 -22 180 -41 172
-54 230 -67 245 -54 10 8 21 7 44 -4 16 -9 37 -16 46 -16 23 0 219 -105 315
-168 47 -32 127 -99 178 -151 51 -51 119 -111 150 -131 88 -58 147 -116 147
-144 1 -14 -3 -22 -7 -20 -15 9 -8 -9 22 -58 16 -26 30 -53 30 -58 0 -6 9 -10
19 -10 17 0 18 -3 8 -30 -10 -27 -7 -38 24 -102 l36 -72 14 27 15 27 40 -83
c23 -45 45 -98 48 -117 l8 -35 -25 29 c-34 42 -44 28 -35 -46 50 -400 60 -614
34 -737 -10 -47 -12 -80 -6 -90 7 -14 10 -12 18 9 5 14 12 34 15 45 3 12 5 6
6 -16 1 -41 -26 -138 -63 -220 -15 -36 -25 -84 -30 -144 -12 -153 -49 -300
-101 -405 -13 -25 -36 -86 -53 -136 -17 -50 -93 -216 -171 -370 -77 -153 -166
-335 -199 -404 -39 -83 -86 -160 -138 -230 -44 -58 -112 -159 -151 -225 -40
-66 -97 -151 -127 -190 -30 -38 -94 -121 -142 -183 -56 -73 -99 -119 -123
-131 -20 -11 -42 -30 -50 -42 -8 -13 -98 -124 -200 -247 -102 -122 -190 -236
-194 -252 -6 -22 -14 -30 -30 -30 -45 0 -211 -175 -447 -470 -46 -58 -121
-141 -166 -185 -45 -44 -84 -89 -88 -101 -10 -34 -103 -122 -222 -210 -44 -32
-116 -89 -162 -126 -46 -37 -87 -68 -91 -68 -4 0 -38 -26 -74 -58 -36 -32 -89
-71 -119 -86 -71 -39 -92 -57 -76 -67 21 -13 -68 -96 -122 -115 -69 -24 -247
-116 -285 -147 -23 -19 -36 -40 -41 -65 -4 -20 -12 -43 -18 -51 -6 -8 -74 -62
-151 -120 -77 -57 -198 -151 -269 -208 -90 -72 -132 -101 -140 -93 -15 15 -26
12 -26 -9 0 -11 -26 -35 -72 -66 -40 -26 -96 -65 -124 -86 -54 -41 -122 -74
-133 -64 -8 9 55 62 99 83 37 18 138 108 130 115 -10 9 -295 -204 -304 -228
-5 -13 -18 -27 -29 -32 -11 -5 -25 -24 -31 -43 -14 -44 -61 -77 -731 -525
-360 -240 -685 -447 -973 -620 -238 -143 -448 -274 -467 -292 l-35 -33 4205 0
4205 0 0 5435 0 5435 -2855 0 c-2707 0 -2855 -1 -2865 -17 -10 -17 -10 -17
-20 0 -13 20 -46 23 -57 4z m-688 -307 c-3 -5 -11 -10 -16 -10 -6 0 -7 5 -4
10 3 6 11 10 16 10 6 0 7 -4 4 -10z m-5 -69 c0 -10 -68 -39 -117 -51 -42 -10
-35 9 15 38 37 22 102 30 102 13z m3595 -1224 c77 -21 99 -38 60 -45 -9 -2
-47 5 -84 16 -36 11 -88 27 -116 35 l-50 15 55 0 c30 0 91 -9 135 -21z"/>
<path d="M2373 8816 c4 -10 1 -13 -9 -9 -14 5 -19 -11 -16 -50 1 -10 -2 -16
-7 -13 -11 7 -22 -49 -14 -71 4 -11 3 -14 -5 -9 -8 5 -11 -1 -10 -18 1 -15 4
-26 6 -26 8 0 42 88 42 112 0 14 4 28 9 30 13 4 21 68 9 68 -6 0 -8 -7 -5 -14z
m-23 -110 c0 -3 -4 -8 -10 -11 -5 -3 -10 -1 -10 4 0 6 5 11 10 11 6 0 10 -2
10 -4z"/>
<path d="M2306 8562 c-9 -16 -19 -289 -11 -318 l8 -29 8 35 c15 61 23 320 11
320 -6 0 -13 -4 -16 -8z"/>
<path d="M1490 7569 c0 -5 5 -7 10 -4 6 3 10 8 10 11 0 2 -4 4 -10 4 -5 0 -10
-5 -10 -11z"/>
<path d="M9261 6795 c-1 -6 -12 -58 -25 -115 -13 -58 -26 -126 -30 -150 l-7
-45 16 28 c26 46 65 232 55 264 -5 16 -9 23 -9 18z"/>
<path d="M5533 4039 c-45 -17 -122 -83 -110 -95 2 -2 31 5 64 17 49 16 66 28
87 60 30 45 29 45 -41 18z"/>
<path d="M4226 3242 c-64 -18 -82 -38 -43 -47 29 -8 123 29 131 51 7 18 -13
17 -88 -4z"/>
<path d="M4025 3148 c-52 -19 -135 -78 -135 -97 0 -21 32 -11 131 41 66 34 95
54 87 60 -17 10 -46 9 -83 -4z"/>
<path d="M3300 2855 c-123 -48 -168 -70 -163 -78 3 -6 1 -7 -5 -3 -14 9 -163
-45 -156 -56 3 -4 -1 -6 -8 -3 -7 3 -19 -4 -26 -15 -7 -11 -11 -20 -10 -20 2
0 62 21 133 46 72 26 162 56 200 67 73 22 85 30 85 60 0 20 -4 20 -50 2z"/>
<path d="M2076 2383 c-17 -3 -30 -12 -33 -23 -5 -20 -135 -80 -173 -80 -12 0
-19 -4 -15 -9 3 -5 0 -13 -6 -17 -8 -5 -9 -3 -4 6 10 16 -19 10 -220 -50 -88
-27 -175 -51 -193 -55 -18 -4 -36 -13 -39 -21 -3 -9 -13 -12 -23 -9 -20 6
-239 -48 -284 -70 -15 -8 -44 -17 -65 -21 -20 -4 -95 -30 -168 -59 -72 -29
-147 -56 -165 -60 -79 -17 -351 -111 -436 -152 -51 -24 -121 -50 -156 -58 -93
-22 -96 -23 -96 -57 0 -20 4 -28 12 -25 94 39 168 67 191 72 17 3 25 10 21 17
-5 7 0 9 15 5 15 -4 26 1 34 14 6 10 19 19 29 19 45 0 210 47 305 87 60 25
131 51 158 58 28 7 113 33 190 58 77 25 173 50 212 56 40 5 98 21 130 36 31
14 107 37 169 50 118 26 186 49 329 113 50 22 105 43 124 47 19 4 54 18 79 31
25 13 56 24 70 24 33 0 112 46 112 65 0 15 -37 18 -104 8z"/>
<path d="M997 2169 c7 -7 15 -10 18 -7 3 3 -2 9 -12 12 -14 6 -15 5 -6 -5z"/>
<path d="M926 2102 c-3 -5 1 -9 9 -9 8 0 12 4 9 9 -3 4 -7 8 -9 8 -2 0 -6 -4
-9 -8z"/>
<path d="M752 2042 c-58 -20 -99 -39 -94 -44 10 -10 184 38 194 55 7 11 11 28
6 26 -2 -1 -49 -17 -106 -37z"/>
<path d="M309 1915 c-1 -3 -2 -10 -3 -16 0 -6 -32 -23 -69 -37 -81 -29 -76
-49 6 -25 39 11 54 19 45 24 -9 6 -3 9 17 9 44 0 62 14 46 34 -13 15 -40 22
-42 11z"/>
<path d="M3330 625 c-11 -13 -10 -14 4 -9 9 3 16 10 16 15 0 13 -6 11 -20 -6z"/>
<path d="M3265 591 c-6 -5 -50 -32 -100 -61 -49 -29 -78 -49 -64 -46 15 3 55
22 89 41 34 19 65 35 70 35 4 0 10 9 13 20 6 23 5 24 -8 11z"/>
<path d="M2396 72 c-3 -5 1 -9 9 -9 8 0 12 4 9 9 -3 4 -7 8 -9 8 -2 0 -6 -4
-9 -8z"/>
<path d="M2334 33 c3 -6 -2 -16 -11 -22 -16 -9 -16 -10 -1 -11 23 0 33 19 18
33 -10 9 -11 9 -6 0z"/>
</g>
</svg>
